<svg xmlns="http://www.w3.org/2000/svg" width="74.448" height="42.778" viewBox="0 0 74.448 42.778">
    <defs>
        <style>
            .cls-1{fill:#2fd0d8}
        </style>
    </defs>
    <g id="Group_58" data-name="Group 58" transform="translate(-2515.601 -1856.01)">
        <g id="Group_48" data-name="Group 48" transform="translate(2515.601 1856.01)">
            <path id="Path_26" d="M2526.96 1898.788a11.356 11.356 0 0 1-7.588-19.808 2.016 2.016 0 0 0 .671-1.507 2.379 2.379 0 0 0-.778-1.754 11.356 11.356 0 1 1 18.894-10.227.65.65 0 0 0 .636.553h28.061a.638.638 0 0 0 .633-.535 11.357 11.357 0 1 1 18.79 10.307 2.015 2.015 0 0 0-.67 1.506 2.379 2.379 0 0 0 .778 1.755 11.356 11.356 0 0 1 3.651 8.878 11.358 11.358 0 0 1-22.546 1.355.65.65 0 0 0-.636-.554h-28.062a.638.638 0 0 0-.632.534 11.308 11.308 0 0 1-11.202 9.497zm-.007-40.132q-.2 0-.409.01a8.71 8.71 0 0 0-5.487 15.107 5.03 5.03 0 0 1 1.632 3.717 4.633 4.633 0 0 1-1.55 3.46 8.71 8.71 0 1 0 14.41 7.912 3.275 3.275 0 0 1 3.243-2.75h28.062a3.288 3.288 0 0 1 3.246 2.765 8.711 8.711 0 1 0 14.491-7.852 5.033 5.033 0 0 1-1.631-3.718 4.635 4.635 0 0 1 1.548-3.458 8.71 8.71 0 1 0-14.41-7.907 3.276 3.276 0 0 1-3.244 2.751H2538.8a3.288 3.288 0 0 1-3.247-2.765 8.713 8.713 0 0 0-8.6-7.272z" data-name="Path 26" transform="translate(-2515.601 -1856.01)"/>
        </g>
        <g id="Group_49" data-name="Group 49" transform="translate(2527.962 1869.912)">
            <path id="Path_27" d="M2591.662 1942.693a1.334 1.334 0 0 1-1.323-1.323 1.314 1.314 0 0 1 .39-.939 1.368 1.368 0 0 1 1.866 0 1.326 1.326 0 0 1 .39.939 1.311 1.311 0 0 1-.39.932.918.918 0 0 1-.2.165 1.118 1.118 0 0 1-.232.126 1.546 1.546 0 0 1-.245.073 1.742 1.742 0 0 1-.256.027z" class="cls-1" data-name="Path 27" transform="translate(-2590.339 -1940.063)"/>
        </g>
        <g id="Group_50" data-name="Group 50" transform="translate(2543.232 1879.287)">
            <path id="Path_28" d="M2683.983 1999.373a1.3 1.3 0 0 1-.939-.39 1.323 1.323 0 0 1-.384-.933 1.132 1.132 0 0 1 .027-.258 1.186 1.186 0 0 1 .072-.251 1.111 1.111 0 0 1 .126-.225 1.542 1.542 0 0 1 .159-.2 1.377 1.377 0 0 1 1.872 0 1.193 1.193 0 0 1 .166.2 1.531 1.531 0 0 1 .125.225 1.835 1.835 0 0 1 .073.251 1.132 1.132 0 0 1 .027.258 1.3 1.3 0 0 1-.39.933 1.243 1.243 0 0 1-.424.291 1.346 1.346 0 0 1-.51.099z" class="cls-1" data-name="Path 28" transform="translate(-2682.66 -1996.743)"/>
        </g>
        <g id="Group_51" data-name="Group 51" transform="translate(2533.394 1876.078)">
            <path id="Path_29" d="M2624.5 1979.993a1.333 1.333 0 0 1-1.323-1.323 1.2 1.2 0 0 1 .027-.265 1.655 1.655 0 0 1 .073-.244 1.224 1.224 0 0 1 .125-.225 1.269 1.269 0 0 1 .166-.2 1.69 1.69 0 0 1 .2-.165 1.517 1.517 0 0 1 .232-.119 1 1 0 0 1 .245-.073 1.142 1.142 0 0 1 .516 0 1.042 1.042 0 0 1 .251.073 1.442 1.442 0 0 1 .226.119 2.59 2.59 0 0 1 .2.165 1.735 1.735 0 0 1 .165.2 1.189 1.189 0 0 1 .119.225 1.118 1.118 0 0 1 .073.244 1.2 1.2 0 0 1 .026.265 1.333 1.333 0 0 1-.384.933 1.669 1.669 0 0 1-.2.165 1.046 1.046 0 0 1-.226.119 1.761 1.761 0 0 1-.244.08 1.682 1.682 0 0 1-.267.026z" class="cls-1" data-name="Path 29" transform="translate(-2623.179 -1977.344)"/>
        </g>
        <g id="Group_52" data-name="Group 52" transform="translate(2531.032 1883.437)">
            <path id="Path_30" d="M2610.221 2024.483a1.313 1.313 0 0 1-.509-.1 1.328 1.328 0 0 1-.814-1.224 1.128 1.128 0 0 1 .027-.258 1.111 1.111 0 0 1 .073-.252 1.1 1.1 0 0 1 .125-.225 1.594 1.594 0 0 1 .159-.2 1.333 1.333 0 0 1 1.2-.357 1.021 1.021 0 0 1 .244.072 1.554 1.554 0 0 1 .232.12 1.632 1.632 0 0 1 .2.166 1.649 1.649 0 0 1 .165.2 1.5 1.5 0 0 1 .119.225 1.47 1.47 0 0 1 .079.252 1.648 1.648 0 0 1 .027.258 1.312 1.312 0 0 1-.39.933 1.269 1.269 0 0 1-.43.291 1.3 1.3 0 0 1-.507.099z" class="cls-1" data-name="Path 30" transform="translate(-2608.898 -2021.835)"/>
        </g>
        <g id="Group_53" data-name="Group 53" transform="translate(2551.919 1872.514)">
            <path id="Path_31" d="M2736.5 1958.443a1.751 1.751 0 0 1-.258-.026c-.087-.02-.166-.047-.245-.073a1.569 1.569 0 0 1-.232-.126 1.164 1.164 0 0 1-.2-.166 1.334 1.334 0 0 1-.291-.429 1.308 1.308 0 0 1-.1-.5 1.581 1.581 0 0 1 .027-.258 1.628 1.628 0 0 1 .08-.251 1.156 1.156 0 0 1 .119-.225 1.234 1.234 0 0 1 .165-.2 1.547 1.547 0 0 1 .2-.165 1.509 1.509 0 0 1 .232-.12 1.033 1.033 0 0 1 .245-.073 1.333 1.333 0 0 1 1.2.357 1.348 1.348 0 0 1 .384.939 1.307 1.307 0 0 1-.1.5 1.428 1.428 0 0 1-.284.429 1.3 1.3 0 0 1-.939.391z" class="cls-1" data-name="Path 31" transform="translate(-2735.179 -1955.795)"/>
        </g>
        <g id="Group_54" data-name="Group 54" transform="translate(2557.324 1880.846)">
            <path id="Path_32" d="M2769.182 2008.816a1.3 1.3 0 0 1-.5-.1 1.433 1.433 0 0 1-.43-.284 1.453 1.453 0 0 1-.291-.43 1.308 1.308 0 0 1-.1-.509 1.34 1.34 0 0 1 .39-.933 1.231 1.231 0 0 1 .2-.165 1.517 1.517 0 0 1 .232-.119 1.428 1.428 0 0 1 .245-.079 1.32 1.32 0 0 1 1.581 1.3 1.313 1.313 0 0 1-.1.509 1.437 1.437 0 0 1-.284.43 2.594 2.594 0 0 1-.205.165 1.429 1.429 0 0 1-.225.119 1.179 1.179 0 0 1-.244.073 1.157 1.157 0 0 1-.269.023z" class="cls-1" data-name="Path 32" transform="translate(-2767.859 -2006.172)"/>
        </g>
        <g id="Group_55" data-name="Group 55" transform="translate(2568.042 1878.837)">
            <path id="Path_33" d="M2833.983 1996.653a1.333 1.333 0 0 1-1.323-1.323 1.648 1.648 0 0 1 .027-.258 1.13 1.13 0 0 1 .2-.476 1.631 1.631 0 0 1 .166-.205 1.378 1.378 0 0 1 1.872 0 2.547 2.547 0 0 1 .166.205 1.4 1.4 0 0 1 .119.225 1.112 1.112 0 0 1 .073.251 1.127 1.127 0 0 1 .027.258 1.332 1.332 0 0 1-.384.933 1.315 1.315 0 0 1-.943.39z" class="cls-1" data-name="Path 33" transform="translate(-2832.66 -1994.023)"/>
        </g>
        <g id="Group_56" data-name="Group 56" transform="translate(2572.699 1868.571)">
            <path id="Path_34" d="M2862.143 1934.6a1.322 1.322 0 0 1-1.323-1.323 1.129 1.129 0 0 1 .026-.258 1.176 1.176 0 0 1 .073-.251 1.518 1.518 0 0 1 .119-.225 1.651 1.651 0 0 1 .165-.2 1.312 1.312 0 0 1 1.2-.364 1.043 1.043 0 0 1 .245.072 1.1 1.1 0 0 1 .231.126.93.93 0 0 1 .2.165 1.228 1.228 0 0 1 .166.2 1.514 1.514 0 0 1 .119.225 1.882 1.882 0 0 1 .08.251 1.741 1.741 0 0 1 .026.258 1.333 1.333 0 0 1-1.323 1.323z" class="cls-1" data-name="Path 34" transform="translate(-2860.82 -1931.956)"/>
        </g>
        <g id="Group_57" data-name="Group 57" transform="translate(2575.736 1883.887)">
            <path id="Path_35" d="M2880.5 2027.2a1.312 1.312 0 0 1-.5-.1 1.279 1.279 0 0 1-.43-.291 1.312 1.312 0 0 1-.39-.933 1.328 1.328 0 0 1 .39-.933 1.3 1.3 0 0 1 1.191-.364 1.1 1.1 0 0 1 .251.073 1.066 1.066 0 0 1 .226.125 1.207 1.207 0 0 1 .2.165 1.326 1.326 0 0 1 0 1.866 1.346 1.346 0 0 1-.43.291 1.32 1.32 0 0 1-.508.101z" class="cls-1" data-name="Path 35" transform="translate(-2879.179 -2024.555)"/>
        </g>
    </g>
</svg>
