<svg xmlns="http://www.w3.org/2000/svg" width="72.424" height="73.034" viewBox="0 0 72.424 73.034">
    <defs>
        <style>
            .cls-1{fill:#2ecfd7}
        </style>
    </defs>
    <g id="Group_47" data-name="Group 47" transform="translate(-813.291 -59.6)">
        <g id="Group_42" data-name="Group 42" transform="translate(845.917 59.6)">
            <path id="Path_21" d="M870.868 83.207l-1.85-1.636c.219-.249 5.338-6.214.09-11.024-2.146-1.967-3.141-4.012-2.958-6.079a7.113 7.113 0 0 1 3.131-4.867l1.322 2.086-.661-1.044.666 1.04a4.656 4.656 0 0 0-2 3.018c-.1 1.257.624 2.611 2.168 4.026 5.637 5.165 2.524 11.73.092 14.48z" class="cls-1" data-name="Path 21" transform="translate(-866.129 -59.6)"/>
        </g>
        <g id="Group_43" data-name="Group 43" transform="translate(837.472 67.264)">
            <path id="Path_22" d="M856.569 90.372l-1.85-1.636c.4-.454 3.789-4.556.09-7.947-1.7-1.558-2.487-3.193-2.34-4.858a5.717 5.717 0 0 1 2.514-3.919l1.328 2.082a3.234 3.234 0 0 0-1.382 2.068 3.7 3.7 0 0 0 1.55 2.806c4.447 4.076 2.003 9.243.09 11.404z" class="cls-1" data-name="Path 22" transform="translate(-852.453 -72.012)"/>
        </g>
        <g id="Group_44" data-name="Group 44" transform="translate(816.132 87.559)">
            <path id="Path_23" d="M859.536 140.2l-1.3-2.1c15.292-9.431 16.18-26.252 16.13-30.749h-54.01c-.043 4.5.869 21.339 16.128 30.749l-1.3 2.1c-18.952-11.687-17.272-33.967-17.254-34.191a1.235 1.235 0 0 1 1.231-1.129h56.399a1.235 1.235 0 0 1 1.231 1.129c.018.224 1.697 22.505-17.255 34.191z" data-name="Path 23" transform="translate(-817.892 -104.88)"/>
        </g>
        <g id="Group_45" data-name="Group 45" transform="translate(867.524 93.317)">
            <path id="Path_24" d="M901.8 133.447l-.674-2.376c11.109-3.152 15.721-7.845 15.721-9.657a4.619 4.619 0 0 0-4.256-4.711 10.667 10.667 0 0 0-4.93.8l-1.1-2.212a12.979 12.979 0 0 1 6.206-1.051 7.069 7.069 0 0 1 6.549 7.175c-.003 4.091-7.37 9.152-17.516 12.032z" data-name="Path 24" transform="translate(-901.122 -114.206)"/>
        </g>
        <g id="Group_46" data-name="Group 46" transform="translate(813.291 120.593)">
            <path id="Path_25" d="M864.644 170.421h-37.46c-7.183 0-13.439-9.73-13.7-10.144a1.235 1.235 0 0 1 1.043-1.9H877.3a1.234 1.234 0 0 1 1.042 1.9c-.26.414-6.516 10.144-13.698 10.144zm-47.71-9.571c2.052 2.64 6.127 7.1 10.25 7.1h37.46c4.122 0 8.2-4.461 10.25-7.1z" data-name="Path 25" transform="translate(-813.291 -158.38)"/>
        </g>
    </g>
</svg>
