<svg xmlns="http://www.w3.org/2000/svg" width="37" height="37" viewBox="0 0 37 37">
    <g fill="none" stroke="#2fd0d8">
        <g transform="translate(-999 -482) translate(999 482)">
            <circle cx="18.5" cy="18.5" r="18.5" stroke="none"/>
            <circle cx="18.5" cy="18.5" r="18"/>
        </g>
        <path stroke-linecap="round" stroke-linejoin="round" stroke-width="2px" d="M9.181 17.378C4.766 18.7 4.766 15.17 3 14.729m12.362 5.3v-3.42a2.976 2.976 0 0 0-.83-2.3c2.773-.309 5.687-1.36 5.687-6.181a4.8 4.8 0 0 0-1.324-3.311 4.477 4.477 0 0 0-.08-3.33s-1.042-.309-3.453 1.307a11.815 11.815 0 0 0-6.181 0C6.77 1.174 5.728 1.483 5.728 1.483a4.477 4.477 0 0 0-.079 3.329A4.8 4.8 0 0 0 4.325 8.15c0 4.786 2.914 5.837 5.687 6.181a2.976 2.976 0 0 0-.83 2.278v3.417" transform="translate(-999 -482) translate(1005.279 490.558)"/>
    </g>
</svg>
