<svg xmlns="http://www.w3.org/2000/svg" width="61.387" height="70.428" viewBox="0 0 61.387 70.428">
    <defs>
        <style>
            .cls-1{fill:#2fd0d8}
        </style>
    </defs>
    <g id="Group_123" data-name="Group 123" transform="translate(-125.338 -112.141)">
        <path id="Path_77" d="M164.691 180.554a5.643 5.643 0 0 0 7.611.957l12.045-8.7c.008-.006.012-.016.02-.022s.021-.008.03-.015a5.639 5.639 0 0 0 1.487-7.525l-22.357-36.011a3.41 3.41 0 0 0-.227-.28 47.655 47.655 0 0 0-2.276-9.657 4.713 4.713 0 0 0-2.316-2.913 3.778 3.778 0 0 0-3.078.349c-.273.121-.685.3-.743.328a5.55 5.55 0 0 1-1.229-1.816c-.651-1.241-1.39-2.647-2.817-3.022-1.394-.369-2.715.471-3.882 1.208a5.5 5.5 0 0 1-2.026.973 3.754 3.754 0 0 1-1.439-.331 5.741 5.741 0 0 0-4.1-.237 6.016 6.016 0 0 0-2.829 2.491 7.231 7.231 0 0 1-1.388 1.57c-.27.2-.711.188-1.42.15a4.857 4.857 0 0 0-4.549 1.74c-1.423 1.767-.953 3.51-.61 4.783a3.014 3.014 0 0 1 .193 1.491c-.144.367-.453.612-.987 1.013a5.26 5.26 0 0 0-2.424 3.792c-.266 1.87.859 3.082 1.763 4.055a4.727 4.727 0 0 1 1.036 1.368 3.177 3.177 0 0 1-.508.7c-.826.98-2.544 3.019.672 5.856a49.556 49.556 0 0 0 9.211 5.363 1.029 1.029 0 0 0 .28.062c.058.084.1.179.162.259zm6.324-.825a3.433 3.433 0 0 1-4.636-.582l-26.7-32.015a1.218 1.218 0 0 1-.185-1.279 1.165 1.165 0 0 1 1.006-.724c.657-.046 1.4-.077 2.211-.077a30.139 30.139 0 0 1 19.753 7.133 210.3 210.3 0 0 1 19.618 19.552zm-17.432-39.488c-.2.967-.388 1.95-.539 2.962a6.105 6.105 0 0 1-7.893-7.719zm.554-2.338l-2.253-12.464 3.022-.547 1.292 7.157a35.979 35.979 0 0 0-2.06 5.851zm-8.948-4.921a1.1 1.1 0 0 0-1.5.418c-.03.053-.044.111-.072.164l-6.322-8.756 2.49-1.8 8.434 11.682zm-2.419 5.855a8.371 8.371 0 0 0 .154.874 8.255 8.255 0 0 0 1.75 3.2c-.724-.041-1.413-.059-2.058-.056l-6.924-6.33 2.071-2.265zm41.246 27.575a3.415 3.415 0 0 1-.246 3.916 212.194 212.194 0 0 0-19.877-19.815 31.34 31.34 0 0 0-8.882-5.348c.694-5.976 2.339-11.333 4.576-14.782a1.272 1.272 0 0 1 1.043-.562 1.205 1.205 0 0 1 1.029.581zm-54.669-28a2.88 2.88 0 0 0 .947-2.656 5.817 5.817 0 0 0-1.544-2.326c-.816-.879-1.31-1.458-1.2-2.251a3.129 3.129 0 0 1 1.567-2.344 3.706 3.706 0 0 0 1.6-4.833c-.324-1.2-.487-1.98.2-2.832.822-1.022 1.623-.986 2.728-.924a4.135 4.135 0 0 0 2.817-.562 8.926 8.926 0 0 0 1.871-2.049c.571-.776 1.11-1.507 1.717-1.7a3.62 3.62 0 0 1 2.69.2 5.526 5.526 0 0 0 2.311.461 6.749 6.749 0 0 0 3.083-1.309c.748-.474 1.674-1.065 2.15-.94.491.129.99 1.079 1.43 1.917a6.785 6.785 0 0 0 1.947 2.617 2.833 2.833 0 0 0 2.861-.14c.626-.278 1.059-.449 1.347-.329.166.069.606.369 1.106 1.673a43.97 43.97 0 0 1 1.919 7.56c-.081-.007-.157-.032-.239-.033a3.262 3.262 0 0 0-2.767 1.395l-1.011-5.6a1.1 1.1 0 0 0-.455-.707 1.119 1.119 0 0 0-.822-.179l-5.185.937a1.1 1.1 0 0 0-.886 1.278l1.927 10.665-10.528-14.581a1.1 1.1 0 0 0-1.534-.248l-4.272 3.083a1.1 1.1 0 0 0-.248 1.535l7.3 10.106-3.736-3.414a1.1 1.1 0 0 0-1.553.07l-3.554 3.887a1.1 1.1 0 0 0 .07 1.553l6.218 5.684a3.359 3.359 0 0 0-2.144 1.9 3.431 3.431 0 0 0-.182.668 47.5 47.5 0 0 1-7.5-4.451c-1.604-1.401-1.264-1.803-.445-2.778z" data-name="Path 77"/>
        <path id="Path_78" d="M206.663 227.241a1.1 1.1 0 0 0-1.535-.248l-6.148 4.44a1.1 1.1 0 0 0 1.286 1.783l6.149-4.44a1.1 1.1 0 0 0 .248-1.535z" class="cls-1" data-name="Path 78" transform="translate(-47.415 -74.274)"/>
        <path id="Path_79" d="M227.172 244.958a1.1 1.1 0 0 0-1.534-.249l-8.483 6.122a1.1 1.1 0 0 0 1.286 1.783l8.482-6.123a1.1 1.1 0 0 0 .249-1.533z" class="cls-1" data-name="Path 79" transform="translate(-59.19 -85.751)"/>
        <path id="Path_80" d="M239.608 276.246a1.1 1.1 0 0 0 1.535.247L250 270.1a1.1 1.1 0 0 0-1.288-1.783l-8.854 6.393a1.1 1.1 0 0 0-.25 1.536z" class="cls-1" data-name="Path 80" transform="translate(-73.897 -101.046)"/>
    </g>
</svg>
