<svg xmlns="http://www.w3.org/2000/svg" width="54.03" height="56.026" viewBox="0 0 54.03 56.026">
    <defs>
        <style>
            .cls-1{fill:#2fd0d8}
        </style>
    </defs>
    <g id="Group_36" data-name="Group 36" transform="translate(-262.506 -255.059)">
        <g id="Group_34" data-name="Group 34" transform="translate(262.506 255.059)">
            <g id="Group_16" data-name="Group 16" transform="translate(0 4.45)">
                <path id="Path_10" d="M310.9 314.529h-42.757a5.644 5.644 0 0 1-5.637-5.637v-40.3a5.643 5.643 0 0 1 5.637-5.637h4.115v2.255h-4.115a3.386 3.386 0 0 0-3.382 3.382v40.3a3.386 3.386 0 0 0 3.382 3.382H310.9a3.387 3.387 0 0 0 3.382-3.382v-40.3a3.386 3.386 0 0 0-3.382-3.382h-4.114v-2.255h4.114a5.643 5.643 0 0 1 5.637 5.637v40.3a5.644 5.644 0 0 1-5.637 5.637z" data-name="Path 10" transform="translate(-262.506 -262.952)"/>
            </g>
            <g id="Group_18" data-name="Group 18" transform="translate(16.093 4.449)">
                <path id="Rectangle_22" d="M0 0H21.846V2.255H0z" data-name="Rectangle 22"/>
            </g>
            <g id="Group_19" data-name="Group 19" transform="translate(1.127 16.426)">
                <path id="Rectangle_23" d="M0 0H51.775V2.255H0z" data-name="Rectangle 23"/>
            </g>
            <g id="Group_21" data-name="Group 21" transform="translate(11.232)">
                <g id="Group_20" data-name="Group 20">
                    <path id="Path_12" d="M284.557 266.086a1.128 1.128 0 0 1-1.127-1.128v-7.772a1.127 1.127 0 1 1 2.255 0v7.772a1.128 1.128 0 0 1-1.128 1.128z" data-name="Path 12" transform="translate(-282.866 -255.495)"/>
                    <path id="Path_13" d="M284.121 266.213a1.693 1.693 0 0 1-1.691-1.691v-7.772a1.691 1.691 0 1 1 3.382 0v7.772a1.693 1.693 0 0 1-1.691 1.691zm0-10.026a.564.564 0 0 0-.564.564v7.772a.564.564 0 1 0 1.127 0v-7.773a.564.564 0 0 0-.563-.564z" data-name="Path 13" transform="translate(-282.43 -255.059)"/>
                </g>
            </g>
            <g id="Group_23" data-name="Group 23" transform="translate(39.418)">
                <g id="Group_22" data-name="Group 22">
                    <path id="Path_14" d="M334.557 266.086a1.128 1.128 0 0 1-1.127-1.128v-7.772a1.127 1.127 0 1 1 2.255 0v7.772a1.128 1.128 0 0 1-1.128 1.128z" data-name="Path 14" transform="translate(-332.866 -255.495)"/>
                    <path id="Path_15" d="M334.121 266.213a1.693 1.693 0 0 1-1.691-1.691v-7.772a1.691 1.691 0 1 1 3.382 0v7.772a1.693 1.693 0 0 1-1.691 1.691zm0-10.026a.564.564 0 0 0-.564.564v7.772a.564.564 0 1 0 1.127 0v-7.773a.564.564 0 0 0-.563-.564z" data-name="Path 15" transform="translate(-332.43 -255.059)"/>
                </g>
            </g>
            <g id="Group_24" data-name="Group 24" transform="translate(18.173 28.245)">
                <path id="Rectangle_24" d="M0 0H4.888V2.255H0z" data-name="Rectangle 24"/>
            </g>
            <g id="Group_25" data-name="Group 25" transform="translate(30.823 28.245)">
                <path id="Rectangle_25" d="M0 0H4.888V2.255H0z" data-name="Rectangle 25"/>
            </g>
            <g id="Group_26" data-name="Group 26" transform="translate(43.472 28.245)">
                <path id="Rectangle_26" d="M0 0H4.888V2.255H0z" data-name="Rectangle 26"/>
            </g>
            <g id="Group_27" data-name="Group 27" transform="translate(5.524 35.294)">
                <path id="Rectangle_27" d="M0 0H4.888V2.255H0z" data-name="Rectangle 27"/>
            </g>
            <g id="Group_28" data-name="Group 28" transform="translate(18.173 35.294)">
                <path id="Rectangle_28" d="M0 0H4.888V2.255H0z" data-name="Rectangle 28"/>
            </g>
            <g id="Group_29" data-name="Group 29" transform="translate(30.823 35.294)">
                <path id="Rectangle_29" d="M0 0H4.888V2.255H0z" data-name="Rectangle 29"/>
            </g>
            <g id="Group_30" data-name="Group 30" transform="translate(43.472 35.294)">
                <path id="Rectangle_30" d="M0 0H4.888V2.255H0z" data-name="Rectangle 30"/>
            </g>
            <g id="Group_31" data-name="Group 31" transform="translate(5.524 42.344)">
                <path id="Rectangle_31" d="M0 0H4.888V2.255H0z" data-name="Rectangle 31"/>
            </g>
            <g id="Group_32" data-name="Group 32" transform="translate(18.173 42.344)">
                <path id="Rectangle_32" d="M0 0H4.888V2.255H0z" data-name="Rectangle 32"/>
            </g>
            <g id="Group_33" data-name="Group 33" transform="translate(30.823 42.344)">
                <path id="Rectangle_33" d="M0 0H4.888V2.255H0z" class="cls-1" data-name="Rectangle 33"/>
            </g>
        </g>
        <g id="Group_35" data-name="Group 35" transform="translate(288.948 294.051)">
            <path id="Path_16" d="M321.933 333.18h-11.395a1.128 1.128 0 0 1-1.127-1.127v-6.7a1.127 1.127 0 0 1 1.127-1.127h11.395a1.127 1.127 0 0 1 1.127 1.127v6.7a1.128 1.128 0 0 1-1.127 1.127zm-10.267-2.255h9.14v-4.444h-9.14z" class="cls-1" data-name="Path 16" transform="translate(-309.411 -324.226)"/>
        </g>
    </g>
</svg>
