<svg xmlns="http://www.w3.org/2000/svg" width="61.79" height="68.5" viewBox="0 0 61.79 68.5">
    <defs>
        <style>
            .cls-1{fill:#2fd0d8}
        </style>
    </defs>
    <g id="Group_119" data-name="Group 119" transform="translate(-73.74 -244.646)">
        <g id="Group_106" data-name="Group 106" transform="translate(87.629 261.439)">
            <g id="Group_97" data-name="Group 97" transform="translate(29.02 7.098)">
                <path id="Path_57" d="M155.6 302.418h-2.233v-5.068a14.674 14.674 0 0 0-2.766-8.61l1.814-1.3a16.894 16.894 0 0 1 3.185 9.912z" class="cls-1" data-name="Path 57" transform="translate(-150.599 -287.438)"/>
            </g>
            <g id="Group_98" data-name="Group 98" transform="translate(8.574)">
                <path id="Path_58" d="M132.882 281.309a14.785 14.785 0 0 0-17.8-2.41l-1.109-1.938a17.019 17.019 0 0 1 20.49 2.772z" class="cls-1" data-name="Path 58" transform="translate(-113.975 -274.725)"/>
            </g>
            <g id="Group_99" data-name="Group 99" transform="translate(0 3.521)">
                <path id="Path_59" d="M100.851 294.52h-2.233a16.9 16.9 0 0 1 6.646-13.489l1.362 1.77a14.685 14.685 0 0 0-5.775 11.719z" class="cls-1" data-name="Path 59" transform="translate(-98.618 -281.031)"/>
            </g>
            <g id="Group_100" data-name="Group 100" transform="translate(0 19.94)">
                <path id="Rectangle_57" d="M0 0H2.233V4.727H0z" class="cls-1" data-name="Rectangle 57"/>
            </g>
            <g id="Group_101" data-name="Group 101" transform="translate(25.164 13.846)">
                <path id="Path_60" d="M146.466 317.311h-2.233V303.33a8.67 8.67 0 0 0-.541-3.027l2.094-.777a10.891 10.891 0 0 1 .681 3.8z" class="cls-1" data-name="Path 60" transform="translate(-143.692 -299.526)"/>
            </g>
            <g id="Group_102" data-name="Group 102" transform="translate(6.081 6.721)">
                <path id="Path_61" d="M111.743 302.553h-2.233v-4.86a10.929 10.929 0 0 1 19.162-7.188l-1.682 1.469a8.7 8.7 0 0 0-15.247 5.719z" class="cls-1" data-name="Path 61" transform="translate(-109.51 -286.763)"/>
            </g>
            <g id="Group_103" data-name="Group 103" transform="translate(6.081 25.108)">
                <path id="Rectangle_58" d="M0 0H2.233V6.523H0z" class="cls-1" data-name="Rectangle 58"/>
            </g>
            <g id="Group_104" data-name="Group 104" transform="translate(19.348 27.9)">
                <path id="Rectangle_59" d="M0 0H2.233V5.97H0z" class="cls-1" data-name="Rectangle 59"/>
            </g>
            <g id="Group_105" data-name="Group 105" transform="translate(12.438 13.747)">
                <path id="Path_62" d="M123.13 319.472h-2.23V303.92a4.572 4.572 0 1 1 9.143 0v6.79h-2.233v-6.79a2.338 2.338 0 1 0-4.677 0z" class="cls-1" data-name="Path 62" transform="translate(-120.897 -299.348)"/>
            </g>
        </g>
        <g id="Group_107" data-name="Group 107" transform="translate(100.17 244.646)">
            <path id="Path_63" d="M125.55 253.583a4.469 4.469 0 1 1 4.469-4.469 4.474 4.474 0 0 1-4.469 4.469zm0-6.7a2.235 2.235 0 1 0 2.235 2.235 2.239 2.239 0 0 0-2.235-2.239z" data-name="Path 63" transform="translate(-121.081 -244.646)"/>
        </g>
        <g id="Group_108" data-name="Group 108" transform="translate(74.377 259.535)">
            <path id="Path_64" d="M79.345 280.256a4.47 4.47 0 1 1 2.241-8.34 4.471 4.471 0 0 1-2.241 8.34zm.011-6.707a2.237 2.237 0 1 0 1.114.3 2.218 2.218 0 0 0-1.115-.3z" data-name="Path 64" transform="translate(-74.881 -271.314)"/>
        </g>
        <g id="Group_109" data-name="Group 109" transform="translate(74.377 289.316)">
            <path id="Path_65" d="M79.359 333.6a4.481 4.481 0 0 1-3.877-2.237 4.462 4.462 0 1 1 3.877 2.237zm-.011-6.707a2.218 2.218 0 0 0-1.114.3 2.225 2.225 0 1 0 1.114-.3z" data-name="Path 65" transform="translate(-74.881 -324.659)"/>
        </g>
        <g id="Group_110" data-name="Group 110" transform="translate(100.17 304.209)">
            <path id="Path_66" d="M125.55 360.271a4.469 4.469 0 1 1 4.469-4.469 4.474 4.474 0 0 1-4.469 4.469zm0-6.7a2.235 2.235 0 1 0 2.235 2.235 2.238 2.238 0 0 0-2.235-2.239z" data-name="Path 66" transform="translate(-121.081 -351.334)"/>
        </g>
        <g id="Group_111" data-name="Group 111" transform="translate(125.963 289.316)">
            <path id="Path_67" d="M171.741 333.6a4.442 4.442 0 0 1-2.227-.6 4.442 4.442 0 1 1 2.227.6zm.011-6.707a2.236 2.236 0 0 0-1.121 4.172 2.235 2.235 0 1 0 1.121-4.172z" data-name="Path 67" transform="translate(-167.28 -324.658)"/>
        </g>
        <g id="Group_112" data-name="Group 112" transform="translate(125.963 259.535)">
            <path id="Path_68" d="M171.755 280.256a4.483 4.483 0 0 1-1.163-.154 4.443 4.443 0 1 1 1.163.154zm-.011-6.707a2.236 2.236 0 1 0 1.122 4.172 2.237 2.237 0 0 0-1.122-4.172z" data-name="Path 68" transform="translate(-167.28 -271.315)"/>
        </g>
        <g id="Group_113" data-name="Group 113" transform="translate(73.74 268.779)">
            <path id="Path_69" d="M75.462 308.182a31.04 31.04 0 0 1-.028-20.31l2.11.731a28.805 28.805 0 0 0 .026 18.842z" data-name="Path 69" transform="translate(-73.74 -287.873)"/>
        </g>
        <g id="Group_114" data-name="Group 114" transform="translate(81.242 297.615)">
            <path id="Path_70" d="M104.558 351.112a31.014 31.014 0 0 1-17.381-10.13l1.69-1.459a28.77 28.77 0 0 0 16.123 9.4z" data-name="Path 70" transform="translate(-87.177 -339.523)"/>
        </g>
        <g id="Group_115" data-name="Group 115" transform="translate(110.055 297.666)">
            <path id="Path_71" d="M139.207 351.186l-.42-2.194a28.755 28.755 0 0 0 16.24-9.378l1.687 1.463a31 31 0 0 1-17.507 10.109z" data-name="Path 71" transform="translate(-138.787 -339.614)"/>
        </g>
        <g id="Group_116" data-name="Group 116" transform="translate(131.726 268.787)">
            <path id="Path_72" d="M179.713 308.109l-2.11-.731a28.8 28.8 0 0 0 0-18.761l2.111-.73a31.043 31.043 0 0 1 0 20.222z" data-name="Path 72" transform="translate(-177.603 -287.887)"/>
        </g>
        <g id="Group_117" data-name="Group 117" transform="translate(110.063 248.551)">
            <path id="Path_73" d="M155.038 263.215a28.762 28.762 0 0 0-16.236-9.381l.42-2.194a31 31 0 0 1 17.5 10.112z" data-name="Path 73" transform="translate(-138.802 -251.641)"/>
        </g>
        <g id="Group_118" data-name="Group 118" transform="translate(81.289 248.582)">
            <path id="Path_74" d="M88.949 263.235l-1.687-1.463A31.015 31.015 0 0 1 104.6 251.7l.432 2.191a28.768 28.768 0 0 0-16.083 9.344z" data-name="Path 74" transform="translate(-87.262 -251.696)"/>
        </g>
    </g>
</svg>
