<svg xmlns="http://www.w3.org/2000/svg" width="37" height="37" viewBox="0 0 37 37">
    <g id="Group_11" data-name="Group 11" transform="translate(-960 -515)">
        <path id="Icon_awesome-linkedin-in" fill="#2fd0d8" d="M3.777 16.872H.279V5.608h3.5zM2.026 4.071a2.035 2.035 0 1 1 2.025-2.045 2.043 2.043 0 0 1-2.025 2.045zm14.842 12.8h-3.49v-5.482c0-1.307-.026-2.983-1.819-2.983-1.819 0-2.1 1.42-2.1 2.889v5.577H5.968V5.608h3.354v1.536h.049a3.675 3.675 0 0 1 3.31-1.819c3.54 0 4.191 2.331 4.191 5.359v6.188z" data-name="Icon awesome-linkedin-in" transform="translate(970.469 523.999)"/>
        <g id="Ellipse_10" fill="none" stroke="#2fd0d8" data-name="Ellipse 10" transform="translate(960 515)">
            <circle cx="18.5" cy="18.5" r="18.5" stroke="none"/>
            <circle cx="18.5" cy="18.5" r="18"/>
        </g>
    </g>
</svg>
